<mxfile host="app.diagrams.net" modified="2023-12-01T19:36:16.951Z" agent="Mozilla/5.0 (X11; Linux x86_64) AppleWebKit/537.36 (KHTML, like Gecko) Chrome/119.0.0.0 Safari/537.36" version="22.1.5" etag="IAvso6RXmfMTSbF5LSbQ" type="github">
  <diagram name="Page-1" id="GtbuRX3HzBxq-08C9bvr">
    <mxGraphModel>
      <root>
        <mxCell id="0" />
        <mxCell id="1" parent="0" />
      </root>
    </mxGraphModel>
  </diagram>
</mxfile>
